<mxfile host="app.diagrams.net" modified="2021-07-01T17:56:41.314Z" agent="5.0 (Windows NT 10.0; Win64; x64) AppleWebKit/537.36 (KHTML, like Gecko) Chrome/91.0.4472.124 Safari/537.36" etag="b3WCQAU48CFpSRVLbOr8" version="14.8.3" type="github">
  <diagram id="E6e28HuY4WMFGnZnQlnY" name="Page-1">
    <mxGraphModel dx="937" dy="849" grid="1" gridSize="10" guides="1" tooltips="1" connect="1" arrows="1" fold="1" page="1" pageScale="1" pageWidth="827" pageHeight="1169" background="none" math="0" shadow="1">
      <root>
        <mxCell id="0" />
        <mxCell id="1" parent="0" />
        <mxCell id="Lh5tlmnLkKcULbW0t-rl-1" value="主" style="shape=cylinder3;whiteSpace=wrap;html=1;boundedLbl=1;backgroundOutline=1;size=15;fillColor=#ffe6cc;strokeColor=#d79b00;sketch=1;rounded=1;" parent="1" vertex="1">
          <mxGeometry x="150" y="180" width="60" height="50" as="geometry" />
        </mxCell>
        <mxCell id="Lh5tlmnLkKcULbW0t-rl-2" value="从" style="shape=cylinder3;whiteSpace=wrap;html=1;boundedLbl=1;backgroundOutline=1;size=15;fillColor=#d5e8d4;strokeColor=#82b366;sketch=1;rounded=1;" parent="1" vertex="1">
          <mxGeometry x="60" y="240" width="60" height="50" as="geometry" />
        </mxCell>
        <mxCell id="Lh5tlmnLkKcULbW0t-rl-3" value="从" style="shape=cylinder3;whiteSpace=wrap;html=1;boundedLbl=1;backgroundOutline=1;size=15;fillColor=#d5e8d4;strokeColor=#82b366;sketch=1;rounded=1;" parent="1" vertex="1">
          <mxGeometry x="240" y="240" width="60" height="50" as="geometry" />
        </mxCell>
        <mxCell id="Lh5tlmnLkKcULbW0t-rl-4" value="" style="endArrow=none;html=1;exitX=1;exitY=0.5;exitDx=0;exitDy=0;exitPerimeter=0;entryX=0;entryY=0.5;entryDx=0;entryDy=0;entryPerimeter=0;gradientColor=#b3b3b3;fillColor=#f5f5f5;strokeColor=#666666;sketch=1;curved=1;" parent="1" source="Lh5tlmnLkKcULbW0t-rl-2" target="Lh5tlmnLkKcULbW0t-rl-3" edge="1">
          <mxGeometry width="50" height="50" relative="1" as="geometry">
            <mxPoint x="390" y="370" as="sourcePoint" />
            <mxPoint x="440" y="320" as="targetPoint" />
          </mxGeometry>
        </mxCell>
        <mxCell id="Lh5tlmnLkKcULbW0t-rl-6" value="" style="endArrow=none;html=1;exitX=0.855;exitY=0;exitDx=0;exitDy=4.35;exitPerimeter=0;entryX=0.145;entryY=1;entryDx=0;entryDy=-4.35;entryPerimeter=0;gradientColor=#b3b3b3;fillColor=#f5f5f5;strokeColor=#666666;sketch=1;curved=1;" parent="1" source="Lh5tlmnLkKcULbW0t-rl-2" target="Lh5tlmnLkKcULbW0t-rl-1" edge="1">
          <mxGeometry width="50" height="50" relative="1" as="geometry">
            <mxPoint x="100" y="230" as="sourcePoint" />
            <mxPoint x="150" y="180" as="targetPoint" />
          </mxGeometry>
        </mxCell>
        <mxCell id="Lh5tlmnLkKcULbW0t-rl-7" value="" style="endArrow=none;html=1;exitX=0.145;exitY=0;exitDx=0;exitDy=4.35;exitPerimeter=0;entryX=0.855;entryY=1;entryDx=0;entryDy=-4.35;entryPerimeter=0;gradientColor=#b3b3b3;fillColor=#f5f5f5;strokeColor=#666666;sketch=1;curved=1;" parent="1" source="Lh5tlmnLkKcULbW0t-rl-3" target="Lh5tlmnLkKcULbW0t-rl-1" edge="1">
          <mxGeometry width="50" height="50" relative="1" as="geometry">
            <mxPoint x="209.99999999999994" y="240.00000000000003" as="sourcePoint" />
            <mxPoint x="257.40000000000003" y="191.29999999999998" as="targetPoint" />
          </mxGeometry>
        </mxCell>
        <mxCell id="Lh5tlmnLkKcULbW0t-rl-9" style="edgeStyle=orthogonalEdgeStyle;curved=1;rounded=0;sketch=1;orthogonalLoop=1;jettySize=auto;html=1;exitX=0.5;exitY=1;exitDx=0;exitDy=0;exitPerimeter=0;" parent="1" source="Lh5tlmnLkKcULbW0t-rl-2" target="Lh5tlmnLkKcULbW0t-rl-2" edge="1">
          <mxGeometry relative="1" as="geometry" />
        </mxCell>
        <mxCell id="Lh5tlmnLkKcULbW0t-rl-10" value="&lt;font face=&quot;Comic Sans MS&quot;&gt;主&lt;/font&gt;" style="shape=cylinder3;whiteSpace=wrap;html=1;boundedLbl=1;backgroundOutline=1;size=15;rounded=1;sketch=1;fillColor=#ffe6cc;strokeColor=#d79b00;" parent="1" vertex="1">
          <mxGeometry x="370" y="230" width="60" height="50" as="geometry" />
        </mxCell>
        <mxCell id="Lh5tlmnLkKcULbW0t-rl-11" value="&lt;font face=&quot;Comic Sans MS&quot;&gt;从&lt;/font&gt;" style="shape=cylinder3;whiteSpace=wrap;html=1;boundedLbl=1;backgroundOutline=1;size=15;rounded=1;sketch=1;fillColor=#d5e8d4;strokeColor=#82b366;" parent="1" vertex="1">
          <mxGeometry x="510" y="230" width="60" height="50" as="geometry" />
        </mxCell>
        <mxCell id="Lh5tlmnLkKcULbW0t-rl-12" value="" style="endArrow=classic;html=1;exitX=1;exitY=0.5;exitDx=0;exitDy=0;exitPerimeter=0;" parent="1" source="Lh5tlmnLkKcULbW0t-rl-10" edge="1">
          <mxGeometry width="50" height="50" relative="1" as="geometry">
            <mxPoint x="400" y="270" as="sourcePoint" />
            <mxPoint x="510" y="255" as="targetPoint" />
          </mxGeometry>
        </mxCell>
        <mxCell id="Lh5tlmnLkKcULbW0t-rl-13" value="oplog" style="text;html=1;align=center;verticalAlign=middle;resizable=0;points=[];autosize=1;strokeColor=none;" parent="1" vertex="1">
          <mxGeometry x="450" y="230" width="40" height="20" as="geometry" />
        </mxCell>
        <mxCell id="Lh5tlmnLkKcULbW0t-rl-14" value="" style="endArrow=classic;html=1;entryX=0.219;entryY=-0.026;entryDx=0;entryDy=0;entryPerimeter=0;" parent="1" target="Lh5tlmnLkKcULbW0t-rl-10" edge="1">
          <mxGeometry width="50" height="50" relative="1" as="geometry">
            <mxPoint x="350" y="190" as="sourcePoint" />
            <mxPoint x="450" y="220" as="targetPoint" />
          </mxGeometry>
        </mxCell>
        <mxCell id="Lh5tlmnLkKcULbW0t-rl-15" value="write" style="text;html=1;align=center;verticalAlign=middle;resizable=0;points=[];autosize=1;strokeColor=none;" parent="1" vertex="1">
          <mxGeometry x="374" y="195" width="40" height="20" as="geometry" />
        </mxCell>
        <mxCell id="Lh5tlmnLkKcULbW0t-rl-16" value="主" style="shape=cylinder3;whiteSpace=wrap;html=1;boundedLbl=1;backgroundOutline=1;size=15;fillColor=#ffe6cc;strokeColor=#d79b00;sketch=1;rounded=1;" parent="1" vertex="1">
          <mxGeometry x="150" y="320" width="60" height="50" as="geometry" />
        </mxCell>
        <mxCell id="Lh5tlmnLkKcULbW0t-rl-17" value="从" style="shape=cylinder3;whiteSpace=wrap;html=1;boundedLbl=1;backgroundOutline=1;size=15;fillColor=#d5e8d4;strokeColor=#82b366;sketch=1;rounded=1;" parent="1" vertex="1">
          <mxGeometry x="60" y="380" width="60" height="50" as="geometry" />
        </mxCell>
        <mxCell id="Lh5tlmnLkKcULbW0t-rl-18" value="从" style="shape=cylinder3;whiteSpace=wrap;html=1;boundedLbl=1;backgroundOutline=1;size=15;fillColor=#d5e8d4;strokeColor=#82b366;sketch=1;rounded=1;" parent="1" vertex="1">
          <mxGeometry x="240" y="380" width="60" height="50" as="geometry" />
        </mxCell>
        <mxCell id="Lh5tlmnLkKcULbW0t-rl-22" style="edgeStyle=orthogonalEdgeStyle;curved=1;rounded=0;sketch=1;orthogonalLoop=1;jettySize=auto;html=1;exitX=0.5;exitY=1;exitDx=0;exitDy=0;exitPerimeter=0;" parent="1" source="Lh5tlmnLkKcULbW0t-rl-17" target="Lh5tlmnLkKcULbW0t-rl-17" edge="1">
          <mxGeometry relative="1" as="geometry" />
        </mxCell>
        <mxCell id="Lh5tlmnLkKcULbW0t-rl-23" value="" style="endArrow=classic;startArrow=classic;html=1;entryX=0.145;entryY=1;entryDx=0;entryDy=-4.35;entryPerimeter=0;exitX=0.855;exitY=0;exitDx=0;exitDy=4.35;exitPerimeter=0;" parent="1" source="Lh5tlmnLkKcULbW0t-rl-17" target="Lh5tlmnLkKcULbW0t-rl-16" edge="1">
          <mxGeometry width="50" height="50" relative="1" as="geometry">
            <mxPoint x="100" y="400" as="sourcePoint" />
            <mxPoint x="150" y="350" as="targetPoint" />
          </mxGeometry>
        </mxCell>
        <mxCell id="Lh5tlmnLkKcULbW0t-rl-24" value="" style="endArrow=classic;startArrow=classic;html=1;entryX=0.855;entryY=1;entryDx=0;entryDy=-4.35;entryPerimeter=0;exitX=0.145;exitY=0;exitDx=0;exitDy=4.35;exitPerimeter=0;" parent="1" source="Lh5tlmnLkKcULbW0t-rl-18" target="Lh5tlmnLkKcULbW0t-rl-16" edge="1">
          <mxGeometry width="50" height="50" relative="1" as="geometry">
            <mxPoint x="121.30000000000007" y="394.35" as="sourcePoint" />
            <mxPoint x="168.69999999999993" y="375.65" as="targetPoint" />
          </mxGeometry>
        </mxCell>
        <mxCell id="Lh5tlmnLkKcULbW0t-rl-25" value="" style="endArrow=classic;startArrow=classic;html=1;entryX=0;entryY=0.5;entryDx=0;entryDy=0;entryPerimeter=0;exitX=1;exitY=0.5;exitDx=0;exitDy=0;exitPerimeter=0;" parent="1" source="Lh5tlmnLkKcULbW0t-rl-17" target="Lh5tlmnLkKcULbW0t-rl-18" edge="1">
          <mxGeometry width="50" height="50" relative="1" as="geometry">
            <mxPoint x="121.30000000000007" y="394.35" as="sourcePoint" />
            <mxPoint x="168.69999999999993" y="375.65" as="targetPoint" />
          </mxGeometry>
        </mxCell>
        <mxCell id="Lh5tlmnLkKcULbW0t-rl-26" value="心跳" style="text;html=1;align=center;verticalAlign=middle;resizable=0;points=[];autosize=1;strokeColor=none;" parent="1" vertex="1">
          <mxGeometry x="100" y="360" width="40" height="20" as="geometry" />
        </mxCell>
        <mxCell id="Lh5tlmnLkKcULbW0t-rl-27" value="心跳" style="text;html=1;align=center;verticalAlign=middle;resizable=0;points=[];autosize=1;strokeColor=none;" parent="1" vertex="1">
          <mxGeometry x="220" y="360" width="40" height="20" as="geometry" />
        </mxCell>
        <mxCell id="Lh5tlmnLkKcULbW0t-rl-28" value="心跳" style="text;html=1;align=center;verticalAlign=middle;resizable=0;points=[];autosize=1;strokeColor=none;" parent="1" vertex="1">
          <mxGeometry x="160" y="410" width="40" height="20" as="geometry" />
        </mxCell>
        <mxCell id="Lh5tlmnLkKcULbW0t-rl-31" style="edgeStyle=orthogonalEdgeStyle;curved=1;rounded=0;sketch=1;orthogonalLoop=1;jettySize=auto;html=1;exitX=1;exitY=0;exitDx=0;exitDy=30;exitPerimeter=0;entryX=0;entryY=0;entryDx=0;entryDy=30;entryPerimeter=0;endArrow=classic;endFill=1;" parent="1" source="Lh5tlmnLkKcULbW0t-rl-29" target="Lh5tlmnLkKcULbW0t-rl-30" edge="1">
          <mxGeometry relative="1" as="geometry" />
        </mxCell>
        <mxCell id="Lh5tlmnLkKcULbW0t-rl-29" value="主" style="shape=cylinder3;whiteSpace=wrap;html=1;boundedLbl=1;backgroundOutline=1;size=15;fillColor=#ffe6cc;strokeColor=#d79b00;sketch=1;rounded=1;" parent="1" vertex="1">
          <mxGeometry x="50" y="500" width="60" height="50" as="geometry" />
        </mxCell>
        <mxCell id="Lh5tlmnLkKcULbW0t-rl-30" value="hidden" style="shape=cylinder3;whiteSpace=wrap;html=1;boundedLbl=1;backgroundOutline=1;size=15;fillColor=#f5f5f5;strokeColor=#666666;sketch=1;rounded=1;fontColor=#333333;dashed=1;" parent="1" vertex="1">
          <mxGeometry x="160" y="500" width="60" height="50" as="geometry" />
        </mxCell>
        <mxCell id="Lh5tlmnLkKcULbW0t-rl-33" value="" style="endArrow=classic;html=1;" parent="1" edge="1">
          <mxGeometry width="50" height="50" relative="1" as="geometry">
            <mxPoint x="250" y="540" as="sourcePoint" />
            <mxPoint x="450" y="540" as="targetPoint" />
          </mxGeometry>
        </mxCell>
        <mxCell id="Lh5tlmnLkKcULbW0t-rl-34" value="" style="endArrow=classic;html=1;" parent="1" edge="1">
          <mxGeometry width="50" height="50" relative="1" as="geometry">
            <mxPoint x="300" y="500" as="sourcePoint" />
            <mxPoint x="300" y="540" as="targetPoint" />
          </mxGeometry>
        </mxCell>
        <mxCell id="Lh5tlmnLkKcULbW0t-rl-35" value="" style="endArrow=classic;html=1;" parent="1" edge="1">
          <mxGeometry width="50" height="50" relative="1" as="geometry">
            <mxPoint x="393.71" y="500" as="sourcePoint" />
            <mxPoint x="393.71" y="540" as="targetPoint" />
          </mxGeometry>
        </mxCell>
        <mxCell id="Lh5tlmnLkKcULbW0t-rl-36" value="" style="endArrow=classic;startArrow=classic;html=1;" parent="1" edge="1">
          <mxGeometry width="50" height="50" relative="1" as="geometry">
            <mxPoint x="300" y="520" as="sourcePoint" />
            <mxPoint x="390" y="520" as="targetPoint" />
          </mxGeometry>
        </mxCell>
        <mxCell id="Lh5tlmnLkKcULbW0t-rl-37" value="延迟节点" style="text;html=1;align=center;verticalAlign=middle;resizable=0;points=[];autosize=1;strokeColor=none;" parent="1" vertex="1">
          <mxGeometry x="270" y="480" width="60" height="20" as="geometry" />
        </mxCell>
        <mxCell id="Lh5tlmnLkKcULbW0t-rl-38" value="主节点" style="text;html=1;align=center;verticalAlign=middle;resizable=0;points=[];autosize=1;strokeColor=none;" parent="1" vertex="1">
          <mxGeometry x="369" y="480" width="50" height="20" as="geometry" />
        </mxCell>
        <mxCell id="Lh5tlmnLkKcULbW0t-rl-40" value="slaveDelay" style="text;html=1;align=center;verticalAlign=middle;resizable=0;points=[];autosize=1;strokeColor=none;" parent="1" vertex="1">
          <mxGeometry x="309" y="500" width="70" height="20" as="geometry" />
        </mxCell>
        <mxCell id="wwEbwtCVRX3zbGxvgmTC-2" value="" style="swimlane;startSize=0;strokeColor=#666666;fontColor=#333333;fillColor=#828282;" parent="1" vertex="1">
          <mxGeometry x="244" y="820" width="146" height="110" as="geometry" />
        </mxCell>
        <mxCell id="wwEbwtCVRX3zbGxvgmTC-3" value="&lt;font style=&quot;font-size: 24px&quot;&gt;Contacts&lt;/font&gt;" style="text;html=1;align=center;verticalAlign=middle;resizable=0;points=[];autosize=1;strokeColor=none;" parent="wwEbwtCVRX3zbGxvgmTC-2" vertex="1">
          <mxGeometry x="1" y="10" width="110" height="20" as="geometry" />
        </mxCell>
        <mxCell id="wwEbwtCVRX3zbGxvgmTC-4" value="&lt;ul&gt;&lt;li&gt;&lt;span&gt;name&lt;/span&gt;&lt;br&gt;&lt;/li&gt;&lt;li&gt;&lt;span&gt;company&lt;/span&gt;&lt;/li&gt;&lt;li&gt;&lt;span&gt;title&lt;/span&gt;&lt;/li&gt;&lt;/ul&gt;" style="text;html=1;align=left;verticalAlign=middle;resizable=0;points=[];autosize=1;strokeColor=none;" parent="wwEbwtCVRX3zbGxvgmTC-2" vertex="1">
          <mxGeometry x="11" y="30" width="100" height="70" as="geometry" />
        </mxCell>
        <mxCell id="wwEbwtCVRX3zbGxvgmTC-5" value="" style="swimlane;startSize=0;fillColor=#f5f5f5;strokeColor=#666666;fontColor=#333333;" parent="1" vertex="1">
          <mxGeometry x="60" y="670" width="146" height="70" as="geometry" />
        </mxCell>
        <mxCell id="wwEbwtCVRX3zbGxvgmTC-6" value="&lt;font style=&quot;font-size: 24px&quot;&gt;Groups&lt;/font&gt;" style="text;html=1;align=center;verticalAlign=middle;resizable=0;points=[];autosize=1;strokeColor=none;" parent="wwEbwtCVRX3zbGxvgmTC-5" vertex="1">
          <mxGeometry x="11" y="10" width="90" height="20" as="geometry" />
        </mxCell>
        <mxCell id="wwEbwtCVRX3zbGxvgmTC-7" value="&lt;ul&gt;&lt;li&gt;name&lt;/li&gt;&lt;/ul&gt;" style="text;html=1;align=left;verticalAlign=middle;resizable=0;points=[];autosize=1;strokeColor=none;" parent="wwEbwtCVRX3zbGxvgmTC-5" vertex="1">
          <mxGeometry x="16" y="30" width="90" height="40" as="geometry" />
        </mxCell>
        <mxCell id="wwEbwtCVRX3zbGxvgmTC-9" value="" style="swimlane;startSize=0;fillColor=#f5f5f5;strokeColor=#666666;fontColor=#333333;" parent="1" vertex="1">
          <mxGeometry x="80" y="970" width="146" height="80" as="geometry" />
        </mxCell>
        <mxCell id="wwEbwtCVRX3zbGxvgmTC-10" value="&lt;font style=&quot;font-size: 24px&quot;&gt;Portraits&lt;/font&gt;" style="text;html=1;align=center;verticalAlign=middle;resizable=0;points=[];autosize=1;strokeColor=none;" parent="wwEbwtCVRX3zbGxvgmTC-9" vertex="1">
          <mxGeometry x="6" y="10" width="100" height="20" as="geometry" />
        </mxCell>
        <mxCell id="wwEbwtCVRX3zbGxvgmTC-11" value="&lt;ul&gt;&lt;li&gt;mime_type&lt;/li&gt;&lt;li style=&quot;text-align: left&quot;&gt;data&lt;/li&gt;&lt;/ul&gt;" style="text;html=1;align=center;verticalAlign=middle;resizable=0;points=[];autosize=1;strokeColor=none;" parent="wwEbwtCVRX3zbGxvgmTC-9" vertex="1">
          <mxGeometry x="6" y="25" width="110" height="60" as="geometry" />
        </mxCell>
        <mxCell id="wwEbwtCVRX3zbGxvgmTC-12" value="" style="swimlane;startSize=0;fillColor=#f5f5f5;strokeColor=#666666;fontColor=#333333;" parent="1" vertex="1">
          <mxGeometry x="380" y="970" width="146" height="80" as="geometry" />
        </mxCell>
        <mxCell id="wwEbwtCVRX3zbGxvgmTC-13" value="&lt;font style=&quot;font-size: 24px&quot;&gt;Emails&lt;br&gt;&lt;/font&gt;" style="text;html=1;align=center;verticalAlign=middle;resizable=0;points=[];autosize=1;strokeColor=none;" parent="wwEbwtCVRX3zbGxvgmTC-12" vertex="1">
          <mxGeometry x="11" y="10" width="90" height="20" as="geometry" />
        </mxCell>
        <mxCell id="wwEbwtCVRX3zbGxvgmTC-14" value="&lt;ul&gt;&lt;li style=&quot;text-align: left&quot;&gt;type&lt;/li&gt;&lt;li style=&quot;text-align: left&quot;&gt;address&lt;/li&gt;&lt;/ul&gt;" style="text;html=1;align=center;verticalAlign=middle;resizable=0;points=[];autosize=1;strokeColor=none;" parent="wwEbwtCVRX3zbGxvgmTC-12" vertex="1">
          <mxGeometry x="6" y="20" width="100" height="60" as="geometry" />
        </mxCell>
        <mxCell id="wwEbwtCVRX3zbGxvgmTC-16" value="" style="swimlane;startSize=0;fillColor=#f5f5f5;strokeColor=#666666;fontColor=#333333;" parent="1" vertex="1">
          <mxGeometry x="490" y="800" width="146" height="90" as="geometry" />
        </mxCell>
        <mxCell id="wwEbwtCVRX3zbGxvgmTC-17" value="&lt;font style=&quot;font-size: 24px&quot;&gt;Phones&lt;/font&gt;" style="text;html=1;align=center;verticalAlign=middle;resizable=0;points=[];autosize=1;strokeColor=none;" parent="wwEbwtCVRX3zbGxvgmTC-16" vertex="1">
          <mxGeometry x="6" y="10" width="100" height="20" as="geometry" />
        </mxCell>
        <mxCell id="wwEbwtCVRX3zbGxvgmTC-18" value="&lt;ul&gt;&lt;li&gt;type&lt;/li&gt;&lt;li&gt;number&lt;/li&gt;&lt;/ul&gt;" style="text;html=1;align=left;verticalAlign=middle;resizable=0;points=[];autosize=1;strokeColor=none;" parent="wwEbwtCVRX3zbGxvgmTC-16" vertex="1">
          <mxGeometry x="6" y="25" width="100" height="60" as="geometry" />
        </mxCell>
        <mxCell id="wwEbwtCVRX3zbGxvgmTC-19" value="" style="swimlane;startSize=0;fillColor=#f5f5f5;strokeColor=#666666;fontColor=#333333;" parent="1" vertex="1">
          <mxGeometry x="390" y="630" width="146" height="130" as="geometry" />
        </mxCell>
        <mxCell id="wwEbwtCVRX3zbGxvgmTC-20" value="&lt;font style=&quot;font-size: 24px&quot;&gt;Address&lt;/font&gt;" style="text;html=1;align=center;verticalAlign=middle;resizable=0;points=[];autosize=1;strokeColor=none;" parent="wwEbwtCVRX3zbGxvgmTC-19" vertex="1">
          <mxGeometry x="6" y="10" width="100" height="20" as="geometry" />
        </mxCell>
        <mxCell id="wwEbwtCVRX3zbGxvgmTC-21" value="&lt;ul&gt;&lt;li&gt;type&lt;/li&gt;&lt;li&gt;street&lt;/li&gt;&lt;li&gt;city&lt;/li&gt;&lt;li&gt;state&lt;/li&gt;&lt;li&gt;zip_code&lt;/li&gt;&lt;/ul&gt;" style="text;html=1;align=left;verticalAlign=middle;resizable=0;points=[];autosize=1;strokeColor=none;" parent="wwEbwtCVRX3zbGxvgmTC-19" vertex="1">
          <mxGeometry x="6" y="30" width="100" height="100" as="geometry" />
        </mxCell>
        <mxCell id="wwEbwtCVRX3zbGxvgmTC-23" value="" style="endArrow=none;html=1;exitX=1;exitY=0.5;exitDx=0;exitDy=0;entryX=0;entryY=0.5;entryDx=0;entryDy=0;" parent="1" source="wwEbwtCVRX3zbGxvgmTC-2" target="wwEbwtCVRX3zbGxvgmTC-16" edge="1">
          <mxGeometry width="50" height="50" relative="1" as="geometry">
            <mxPoint x="270" y="750" as="sourcePoint" />
            <mxPoint x="320" y="700" as="targetPoint" />
          </mxGeometry>
        </mxCell>
        <mxCell id="wwEbwtCVRX3zbGxvgmTC-34" value="1" style="edgeLabel;html=1;align=center;verticalAlign=middle;resizable=0;points=[];" parent="wwEbwtCVRX3zbGxvgmTC-23" vertex="1" connectable="0">
          <mxGeometry x="-0.7383" y="-1" relative="1" as="geometry">
            <mxPoint x="-1" as="offset" />
          </mxGeometry>
        </mxCell>
        <mxCell id="wwEbwtCVRX3zbGxvgmTC-35" value="N" style="edgeLabel;html=1;align=center;verticalAlign=middle;resizable=0;points=[];" parent="wwEbwtCVRX3zbGxvgmTC-23" vertex="1" connectable="0">
          <mxGeometry x="0.6886" y="-2" relative="1" as="geometry">
            <mxPoint as="offset" />
          </mxGeometry>
        </mxCell>
        <mxCell id="wwEbwtCVRX3zbGxvgmTC-24" value="" style="endArrow=none;html=1;exitX=0.828;exitY=1.017;exitDx=0;exitDy=0;exitPerimeter=0;entryX=0.25;entryY=0;entryDx=0;entryDy=0;" parent="1" source="wwEbwtCVRX3zbGxvgmTC-5" target="wwEbwtCVRX3zbGxvgmTC-2" edge="1">
          <mxGeometry width="50" height="50" relative="1" as="geometry">
            <mxPoint x="280" y="760" as="sourcePoint" />
            <mxPoint x="330" y="710" as="targetPoint" />
          </mxGeometry>
        </mxCell>
        <mxCell id="wwEbwtCVRX3zbGxvgmTC-28" value="N" style="edgeLabel;html=1;align=center;verticalAlign=middle;resizable=0;points=[];" parent="wwEbwtCVRX3zbGxvgmTC-24" vertex="1" connectable="0">
          <mxGeometry x="-0.7217" relative="1" as="geometry">
            <mxPoint as="offset" />
          </mxGeometry>
        </mxCell>
        <mxCell id="wwEbwtCVRX3zbGxvgmTC-29" value="N" style="edgeLabel;html=1;align=center;verticalAlign=middle;resizable=0;points=[];" parent="wwEbwtCVRX3zbGxvgmTC-24" vertex="1" connectable="0">
          <mxGeometry x="0.4935" y="2" relative="1" as="geometry">
            <mxPoint x="-1" as="offset" />
          </mxGeometry>
        </mxCell>
        <mxCell id="wwEbwtCVRX3zbGxvgmTC-25" value="" style="endArrow=none;html=1;exitX=0.5;exitY=0;exitDx=0;exitDy=0;entryX=0;entryY=0.75;entryDx=0;entryDy=0;" parent="1" source="wwEbwtCVRX3zbGxvgmTC-2" target="wwEbwtCVRX3zbGxvgmTC-19" edge="1">
          <mxGeometry width="50" height="50" relative="1" as="geometry">
            <mxPoint x="280" y="760" as="sourcePoint" />
            <mxPoint x="330" y="710" as="targetPoint" />
          </mxGeometry>
        </mxCell>
        <mxCell id="wwEbwtCVRX3zbGxvgmTC-36" value="1" style="edgeLabel;html=1;align=center;verticalAlign=middle;resizable=0;points=[];" parent="wwEbwtCVRX3zbGxvgmTC-25" vertex="1" connectable="0">
          <mxGeometry x="-0.5684" relative="1" as="geometry">
            <mxPoint as="offset" />
          </mxGeometry>
        </mxCell>
        <mxCell id="wwEbwtCVRX3zbGxvgmTC-37" value="N" style="edgeLabel;html=1;align=center;verticalAlign=middle;resizable=0;points=[];" parent="wwEbwtCVRX3zbGxvgmTC-25" vertex="1" connectable="0">
          <mxGeometry x="0.6417" y="1" relative="1" as="geometry">
            <mxPoint as="offset" />
          </mxGeometry>
        </mxCell>
        <mxCell id="wwEbwtCVRX3zbGxvgmTC-26" value="" style="endArrow=none;html=1;exitX=0.25;exitY=1;exitDx=0;exitDy=0;entryX=0.562;entryY=-0.022;entryDx=0;entryDy=0;entryPerimeter=0;" parent="1" source="wwEbwtCVRX3zbGxvgmTC-2" target="wwEbwtCVRX3zbGxvgmTC-9" edge="1">
          <mxGeometry width="50" height="50" relative="1" as="geometry">
            <mxPoint x="280" y="760" as="sourcePoint" />
            <mxPoint x="330" y="710" as="targetPoint" />
          </mxGeometry>
        </mxCell>
        <mxCell id="wwEbwtCVRX3zbGxvgmTC-30" value="1" style="edgeLabel;html=1;align=center;verticalAlign=middle;resizable=0;points=[];" parent="wwEbwtCVRX3zbGxvgmTC-26" vertex="1" connectable="0">
          <mxGeometry x="0.7181" y="-1" relative="1" as="geometry">
            <mxPoint as="offset" />
          </mxGeometry>
        </mxCell>
        <mxCell id="wwEbwtCVRX3zbGxvgmTC-31" value="1" style="edgeLabel;html=1;align=center;verticalAlign=middle;resizable=0;points=[];" parent="wwEbwtCVRX3zbGxvgmTC-26" vertex="1" connectable="0">
          <mxGeometry x="-0.4415" y="-2" relative="1" as="geometry">
            <mxPoint x="1" as="offset" />
          </mxGeometry>
        </mxCell>
        <mxCell id="wwEbwtCVRX3zbGxvgmTC-27" value="" style="endArrow=none;html=1;exitX=0.75;exitY=1;exitDx=0;exitDy=0;entryX=0.5;entryY=0;entryDx=0;entryDy=0;" parent="1" source="wwEbwtCVRX3zbGxvgmTC-2" target="wwEbwtCVRX3zbGxvgmTC-12" edge="1">
          <mxGeometry width="50" height="50" relative="1" as="geometry">
            <mxPoint x="280" y="760" as="sourcePoint" />
            <mxPoint x="330" y="710" as="targetPoint" />
          </mxGeometry>
        </mxCell>
        <mxCell id="wwEbwtCVRX3zbGxvgmTC-32" value="1" style="edgeLabel;html=1;align=center;verticalAlign=middle;resizable=0;points=[];" parent="wwEbwtCVRX3zbGxvgmTC-27" vertex="1" connectable="0">
          <mxGeometry x="-0.3456" y="2" relative="1" as="geometry">
            <mxPoint as="offset" />
          </mxGeometry>
        </mxCell>
        <mxCell id="wwEbwtCVRX3zbGxvgmTC-33" value="N" style="edgeLabel;html=1;align=center;verticalAlign=middle;resizable=0;points=[];" parent="wwEbwtCVRX3zbGxvgmTC-27" vertex="1" connectable="0">
          <mxGeometry x="0.6118" y="4" relative="1" as="geometry">
            <mxPoint y="1" as="offset" />
          </mxGeometry>
        </mxCell>
        <mxCell id="cRQAMdIp9ZnJGTgWbgQi-1" value="Contact" style="ellipse;whiteSpace=wrap;html=1;" parent="1" vertex="1">
          <mxGeometry x="100" y="1110" width="100" height="60" as="geometry" />
        </mxCell>
        <mxCell id="cRQAMdIp9ZnJGTgWbgQi-2" value="Group" style="ellipse;whiteSpace=wrap;html=1;" parent="1" vertex="1">
          <mxGeometry x="100" y="1190" width="100" height="60" as="geometry" />
        </mxCell>
        <mxCell id="cRQAMdIp9ZnJGTgWbgQi-4" value="Contact" style="swimlane;fontStyle=0;childLayout=stackLayout;horizontal=1;startSize=26;horizontalStack=0;resizeParent=1;resizeParentMax=0;resizeLast=0;collapsible=1;marginBottom=0;" parent="1" vertex="1">
          <mxGeometry x="344" y="1130" width="140" height="282" as="geometry" />
        </mxCell>
        <mxCell id="cRQAMdIp9ZnJGTgWbgQi-5" value="name" style="text;strokeColor=none;fillColor=none;align=left;verticalAlign=top;spacingLeft=4;spacingRight=4;overflow=hidden;rotatable=0;points=[[0,0.5],[1,0.5]];portConstraint=eastwest;" parent="cRQAMdIp9ZnJGTgWbgQi-4" vertex="1">
          <mxGeometry y="26" width="140" height="26" as="geometry" />
        </mxCell>
        <mxCell id="cRQAMdIp9ZnJGTgWbgQi-6" value="gender" style="text;strokeColor=none;fillColor=none;align=left;verticalAlign=top;spacingLeft=4;spacingRight=4;overflow=hidden;rotatable=0;points=[[0,0.5],[1,0.5]];portConstraint=eastwest;" parent="cRQAMdIp9ZnJGTgWbgQi-4" vertex="1">
          <mxGeometry y="52" width="140" height="26" as="geometry" />
        </mxCell>
        <mxCell id="cRQAMdIp9ZnJGTgWbgQi-7" value="Phones []" style="text;strokeColor=none;fillColor=none;align=left;verticalAlign=top;spacingLeft=4;spacingRight=4;overflow=hidden;rotatable=0;points=[[0,0.5],[1,0.5]];portConstraint=eastwest;" parent="cRQAMdIp9ZnJGTgWbgQi-4" vertex="1">
          <mxGeometry y="78" width="140" height="22" as="geometry" />
        </mxCell>
        <mxCell id="cRQAMdIp9ZnJGTgWbgQi-8" value="groups []" style="text;strokeColor=none;fillColor=none;align=left;verticalAlign=top;spacingLeft=4;spacingRight=4;overflow=hidden;rotatable=0;points=[[0,0.5],[1,0.5]];portConstraint=eastwest;" parent="cRQAMdIp9ZnJGTgWbgQi-4" vertex="1">
          <mxGeometry y="100" width="140" height="26" as="geometry" />
        </mxCell>
        <mxCell id="cRQAMdIp9ZnJGTgWbgQi-14" value="Addresses []" style="text;strokeColor=none;fillColor=none;align=left;verticalAlign=top;spacingLeft=4;spacingRight=4;overflow=hidden;rotatable=0;points=[[0,0.5],[1,0.5]];portConstraint=eastwest;" parent="cRQAMdIp9ZnJGTgWbgQi-4" vertex="1">
          <mxGeometry y="126" width="140" height="26" as="geometry" />
        </mxCell>
        <mxCell id="cRQAMdIp9ZnJGTgWbgQi-9" value="getName()" style="text;strokeColor=none;fillColor=none;align=left;verticalAlign=top;spacingLeft=4;spacingRight=4;overflow=hidden;rotatable=0;points=[[0,0.5],[1,0.5]];portConstraint=eastwest;" parent="cRQAMdIp9ZnJGTgWbgQi-4" vertex="1">
          <mxGeometry y="152" width="140" height="26" as="geometry" />
        </mxCell>
        <mxCell id="cRQAMdIp9ZnJGTgWbgQi-10" value="getPhones()" style="text;strokeColor=none;fillColor=none;align=left;verticalAlign=top;spacingLeft=4;spacingRight=4;overflow=hidden;rotatable=0;points=[[0,0.5],[1,0.5]];portConstraint=eastwest;" parent="cRQAMdIp9ZnJGTgWbgQi-4" vertex="1">
          <mxGeometry y="178" width="140" height="26" as="geometry" />
        </mxCell>
        <mxCell id="cRQAMdIp9ZnJGTgWbgQi-12" value="getAddresses()" style="text;strokeColor=none;fillColor=none;align=left;verticalAlign=top;spacingLeft=4;spacingRight=4;overflow=hidden;rotatable=0;points=[[0,0.5],[1,0.5]];portConstraint=eastwest;" parent="cRQAMdIp9ZnJGTgWbgQi-4" vertex="1">
          <mxGeometry y="204" width="140" height="26" as="geometry" />
        </mxCell>
        <mxCell id="cRQAMdIp9ZnJGTgWbgQi-11" value="getGender()" style="text;strokeColor=none;fillColor=none;align=left;verticalAlign=top;spacingLeft=4;spacingRight=4;overflow=hidden;rotatable=0;points=[[0,0.5],[1,0.5]];portConstraint=eastwest;" parent="cRQAMdIp9ZnJGTgWbgQi-4" vertex="1">
          <mxGeometry y="230" width="140" height="26" as="geometry" />
        </mxCell>
        <mxCell id="cRQAMdIp9ZnJGTgWbgQi-13" value="getGroups()" style="text;strokeColor=none;fillColor=none;align=left;verticalAlign=top;spacingLeft=4;spacingRight=4;overflow=hidden;rotatable=0;points=[[0,0.5],[1,0.5]];portConstraint=eastwest;" parent="cRQAMdIp9ZnJGTgWbgQi-4" vertex="1">
          <mxGeometry y="256" width="140" height="26" as="geometry" />
        </mxCell>
        <mxCell id="cRQAMdIp9ZnJGTgWbgQi-15" value="" style="endArrow=none;html=1;exitX=0.007;exitY=-0.154;exitDx=0;exitDy=0;entryX=1.007;entryY=0.846;entryDx=0;entryDy=0;entryPerimeter=0;exitPerimeter=0;" parent="cRQAMdIp9ZnJGTgWbgQi-4" source="cRQAMdIp9ZnJGTgWbgQi-9" target="cRQAMdIp9ZnJGTgWbgQi-14" edge="1">
          <mxGeometry width="50" height="50" relative="1" as="geometry">
            <mxPoint x="46" y="270" as="sourcePoint" />
            <mxPoint x="96" y="220" as="targetPoint" />
          </mxGeometry>
        </mxCell>
        <mxCell id="cRQAMdIp9ZnJGTgWbgQi-16" value="Group" style="swimlane;fontStyle=0;childLayout=stackLayout;horizontal=1;startSize=26;horizontalStack=0;resizeParent=1;resizeParentMax=0;resizeLast=0;collapsible=1;marginBottom=0;" parent="1" vertex="1">
          <mxGeometry x="596" y="1164" width="140" height="104" as="geometry" />
        </mxCell>
        <mxCell id="cRQAMdIp9ZnJGTgWbgQi-17" value="name&#xa;" style="text;strokeColor=none;fillColor=none;align=left;verticalAlign=top;spacingLeft=4;spacingRight=4;overflow=hidden;rotatable=0;points=[[0,0.5],[1,0.5]];portConstraint=eastwest;" parent="cRQAMdIp9ZnJGTgWbgQi-16" vertex="1">
          <mxGeometry y="26" width="140" height="26" as="geometry" />
        </mxCell>
        <mxCell id="cRQAMdIp9ZnJGTgWbgQi-18" value="description" style="text;strokeColor=none;fillColor=none;align=left;verticalAlign=top;spacingLeft=4;spacingRight=4;overflow=hidden;rotatable=0;points=[[0,0.5],[1,0.5]];portConstraint=eastwest;" parent="cRQAMdIp9ZnJGTgWbgQi-16" vertex="1">
          <mxGeometry y="52" width="140" height="26" as="geometry" />
        </mxCell>
        <mxCell id="cRQAMdIp9ZnJGTgWbgQi-19" value="created" style="text;strokeColor=none;fillColor=none;align=left;verticalAlign=top;spacingLeft=4;spacingRight=4;overflow=hidden;rotatable=0;points=[[0,0.5],[1,0.5]];portConstraint=eastwest;" parent="cRQAMdIp9ZnJGTgWbgQi-16" vertex="1">
          <mxGeometry y="78" width="140" height="26" as="geometry" />
        </mxCell>
        <mxCell id="cRQAMdIp9ZnJGTgWbgQi-22" value="" style="endArrow=none;html=1;exitX=1;exitY=0.808;exitDx=0;exitDy=0;exitPerimeter=0;entryX=0.021;entryY=0.038;entryDx=0;entryDy=0;entryPerimeter=0;" parent="1" source="cRQAMdIp9ZnJGTgWbgQi-8" target="cRQAMdIp9ZnJGTgWbgQi-18" edge="1">
          <mxGeometry width="50" height="50" relative="1" as="geometry">
            <mxPoint x="500" y="1310" as="sourcePoint" />
            <mxPoint x="550" y="1260" as="targetPoint" />
          </mxGeometry>
        </mxCell>
        <mxCell id="cRQAMdIp9ZnJGTgWbgQi-23" value="N" style="edgeLabel;html=1;align=center;verticalAlign=middle;resizable=0;points=[];" parent="cRQAMdIp9ZnJGTgWbgQi-22" vertex="1" connectable="0">
          <mxGeometry x="-0.7843" y="1" relative="1" as="geometry">
            <mxPoint as="offset" />
          </mxGeometry>
        </mxCell>
        <mxCell id="cRQAMdIp9ZnJGTgWbgQi-24" value="N" style="edgeLabel;html=1;align=center;verticalAlign=middle;resizable=0;points=[];" parent="cRQAMdIp9ZnJGTgWbgQi-22" vertex="1" connectable="0">
          <mxGeometry x="0.6892" relative="1" as="geometry">
            <mxPoint as="offset" />
          </mxGeometry>
        </mxCell>
        <mxCell id="cRQAMdIp9ZnJGTgWbgQi-25" value="Contact" style="swimlane;fontStyle=0;childLayout=stackLayout;horizontal=1;startSize=26;horizontalStack=0;resizeParent=1;resizeParentMax=0;resizeLast=0;collapsible=1;marginBottom=0;" parent="1" vertex="1">
          <mxGeometry x="104" y="1590" width="140" height="182" as="geometry" />
        </mxCell>
        <mxCell id="cRQAMdIp9ZnJGTgWbgQi-26" value="contact_id" style="text;align=left;verticalAlign=top;spacingLeft=4;spacingRight=4;overflow=hidden;rotatable=0;points=[[0,0.5],[1,0.5]];portConstraint=eastwest;fillColor=#fff2cc;strokeColor=#d6b656;" parent="cRQAMdIp9ZnJGTgWbgQi-25" vertex="1">
          <mxGeometry y="26" width="140" height="26" as="geometry" />
        </mxCell>
        <mxCell id="cRQAMdIp9ZnJGTgWbgQi-27" value="name" style="text;strokeColor=none;fillColor=none;align=left;verticalAlign=top;spacingLeft=4;spacingRight=4;overflow=hidden;rotatable=0;points=[[0,0.5],[1,0.5]];portConstraint=eastwest;" parent="cRQAMdIp9ZnJGTgWbgQi-25" vertex="1">
          <mxGeometry y="52" width="140" height="26" as="geometry" />
        </mxCell>
        <mxCell id="cRQAMdIp9ZnJGTgWbgQi-46" value="gender    " style="text;strokeColor=none;fillColor=none;align=left;verticalAlign=top;spacingLeft=4;spacingRight=4;overflow=hidden;rotatable=0;points=[[0,0.5],[1,0.5]];portConstraint=eastwest;" parent="cRQAMdIp9ZnJGTgWbgQi-25" vertex="1">
          <mxGeometry y="78" width="140" height="26" as="geometry" />
        </mxCell>
        <mxCell id="cRQAMdIp9ZnJGTgWbgQi-45" value="phones" style="text;strokeColor=none;fillColor=none;align=left;verticalAlign=top;spacingLeft=4;spacingRight=4;overflow=hidden;rotatable=0;points=[[0,0.5],[1,0.5]];portConstraint=eastwest;" parent="cRQAMdIp9ZnJGTgWbgQi-25" vertex="1">
          <mxGeometry y="104" width="140" height="26" as="geometry" />
        </mxCell>
        <mxCell id="cRQAMdIp9ZnJGTgWbgQi-47" value="groups" style="text;strokeColor=none;fillColor=none;align=left;verticalAlign=top;spacingLeft=4;spacingRight=4;overflow=hidden;rotatable=0;points=[[0,0.5],[1,0.5]];portConstraint=eastwest;" parent="cRQAMdIp9ZnJGTgWbgQi-25" vertex="1">
          <mxGeometry y="130" width="140" height="26" as="geometry" />
        </mxCell>
        <mxCell id="cRQAMdIp9ZnJGTgWbgQi-28" value="addresses" style="text;strokeColor=none;fillColor=none;align=left;verticalAlign=top;spacingLeft=4;spacingRight=4;overflow=hidden;rotatable=0;points=[[0,0.5],[1,0.5]];portConstraint=eastwest;" parent="cRQAMdIp9ZnJGTgWbgQi-25" vertex="1">
          <mxGeometry y="156" width="140" height="26" as="geometry" />
        </mxCell>
        <mxCell id="cRQAMdIp9ZnJGTgWbgQi-29" value="ContactGroup" style="swimlane;fontStyle=0;childLayout=stackLayout;horizontal=1;startSize=26;horizontalStack=0;resizeParent=1;resizeParentMax=0;resizeLast=0;collapsible=1;marginBottom=0;fillColor=#fff2cc;strokeColor=#d6b656;" parent="1" vertex="1">
          <mxGeometry x="300" y="1520" width="140" height="78" as="geometry" />
        </mxCell>
        <mxCell id="cRQAMdIp9ZnJGTgWbgQi-30" value="Item 1" style="text;strokeColor=none;fillColor=none;align=left;verticalAlign=top;spacingLeft=4;spacingRight=4;overflow=hidden;rotatable=0;points=[[0,0.5],[1,0.5]];portConstraint=eastwest;" parent="cRQAMdIp9ZnJGTgWbgQi-29" vertex="1">
          <mxGeometry y="26" width="140" height="26" as="geometry" />
        </mxCell>
        <mxCell id="cRQAMdIp9ZnJGTgWbgQi-31" value="contact_id" style="text;strokeColor=none;fillColor=none;align=left;verticalAlign=top;spacingLeft=4;spacingRight=4;overflow=hidden;rotatable=0;points=[[0,0.5],[1,0.5]];portConstraint=eastwest;" parent="cRQAMdIp9ZnJGTgWbgQi-29" vertex="1">
          <mxGeometry y="52" width="140" height="26" as="geometry" />
        </mxCell>
        <mxCell id="cRQAMdIp9ZnJGTgWbgQi-33" value="Address" style="swimlane;fontStyle=0;childLayout=stackLayout;horizontal=1;startSize=26;horizontalStack=0;resizeParent=1;resizeParentMax=0;resizeLast=0;collapsible=1;marginBottom=0;fillColor=#fff2cc;strokeColor=#d6b656;" parent="1" vertex="1">
          <mxGeometry x="300" y="1710" width="140" height="130" as="geometry" />
        </mxCell>
        <mxCell id="cRQAMdIp9ZnJGTgWbgQi-34" value="address_id" style="text;strokeColor=none;fillColor=none;align=left;verticalAlign=top;spacingLeft=4;spacingRight=4;overflow=hidden;rotatable=0;points=[[0,0.5],[1,0.5]];portConstraint=eastwest;" parent="cRQAMdIp9ZnJGTgWbgQi-33" vertex="1">
          <mxGeometry y="26" width="140" height="26" as="geometry" />
        </mxCell>
        <mxCell id="cRQAMdIp9ZnJGTgWbgQi-35" value="type" style="text;strokeColor=none;fillColor=none;align=left;verticalAlign=top;spacingLeft=4;spacingRight=4;overflow=hidden;rotatable=0;points=[[0,0.5],[1,0.5]];portConstraint=eastwest;" parent="cRQAMdIp9ZnJGTgWbgQi-33" vertex="1">
          <mxGeometry y="52" width="140" height="26" as="geometry" />
        </mxCell>
        <mxCell id="cRQAMdIp9ZnJGTgWbgQi-48" value="province_id" style="text;strokeColor=#d6b656;fillColor=#fff2cc;align=left;verticalAlign=top;spacingLeft=4;spacingRight=4;overflow=hidden;rotatable=0;points=[[0,0.5],[1,0.5]];portConstraint=eastwest;" parent="cRQAMdIp9ZnJGTgWbgQi-33" vertex="1">
          <mxGeometry y="78" width="140" height="26" as="geometry" />
        </mxCell>
        <mxCell id="cRQAMdIp9ZnJGTgWbgQi-36" value="address" style="text;strokeColor=none;fillColor=none;align=left;verticalAlign=top;spacingLeft=4;spacingRight=4;overflow=hidden;rotatable=0;points=[[0,0.5],[1,0.5]];portConstraint=eastwest;" parent="cRQAMdIp9ZnJGTgWbgQi-33" vertex="1">
          <mxGeometry y="104" width="140" height="26" as="geometry" />
        </mxCell>
        <mxCell id="cRQAMdIp9ZnJGTgWbgQi-37" value="Group" style="swimlane;fontStyle=0;childLayout=stackLayout;horizontal=1;startSize=26;horizontalStack=0;resizeParent=1;resizeParentMax=0;resizeLast=0;collapsible=1;marginBottom=0;" parent="1" vertex="1">
          <mxGeometry x="520" y="1530" width="140" height="130" as="geometry" />
        </mxCell>
        <mxCell id="cRQAMdIp9ZnJGTgWbgQi-38" value="group_id" style="text;strokeColor=#d6b656;fillColor=#fff2cc;align=left;verticalAlign=top;spacingLeft=4;spacingRight=4;overflow=hidden;rotatable=0;points=[[0,0.5],[1,0.5]];portConstraint=eastwest;" parent="cRQAMdIp9ZnJGTgWbgQi-37" vertex="1">
          <mxGeometry y="26" width="140" height="26" as="geometry" />
        </mxCell>
        <mxCell id="cRQAMdIp9ZnJGTgWbgQi-39" value="name" style="text;strokeColor=none;fillColor=none;align=left;verticalAlign=top;spacingLeft=4;spacingRight=4;overflow=hidden;rotatable=0;points=[[0,0.5],[1,0.5]];portConstraint=eastwest;" parent="cRQAMdIp9ZnJGTgWbgQi-37" vertex="1">
          <mxGeometry y="52" width="140" height="26" as="geometry" />
        </mxCell>
        <mxCell id="cRQAMdIp9ZnJGTgWbgQi-40" value="description" style="text;strokeColor=none;fillColor=none;align=left;verticalAlign=top;spacingLeft=4;spacingRight=4;overflow=hidden;rotatable=0;points=[[0,0.5],[1,0.5]];portConstraint=eastwest;" parent="cRQAMdIp9ZnJGTgWbgQi-37" vertex="1">
          <mxGeometry y="78" width="140" height="26" as="geometry" />
        </mxCell>
        <mxCell id="cRQAMdIp9ZnJGTgWbgQi-49" value="created" style="text;strokeColor=none;fillColor=none;align=left;verticalAlign=top;spacingLeft=4;spacingRight=4;overflow=hidden;rotatable=0;points=[[0,0.5],[1,0.5]];portConstraint=eastwest;" parent="cRQAMdIp9ZnJGTgWbgQi-37" vertex="1">
          <mxGeometry y="104" width="140" height="26" as="geometry" />
        </mxCell>
        <mxCell id="cRQAMdIp9ZnJGTgWbgQi-41" value="Province" style="swimlane;fontStyle=0;childLayout=stackLayout;horizontal=1;startSize=26;horizontalStack=0;resizeParent=1;resizeParentMax=0;resizeLast=0;collapsible=1;marginBottom=0;" parent="1" vertex="1">
          <mxGeometry x="520" y="1693" width="140" height="78" as="geometry" />
        </mxCell>
        <mxCell id="cRQAMdIp9ZnJGTgWbgQi-42" value="province_id" style="text;strokeColor=#d6b656;fillColor=#fff2cc;align=left;verticalAlign=top;spacingLeft=4;spacingRight=4;overflow=hidden;rotatable=0;points=[[0,0.5],[1,0.5]];portConstraint=eastwest;" parent="cRQAMdIp9ZnJGTgWbgQi-41" vertex="1">
          <mxGeometry y="26" width="140" height="26" as="geometry" />
        </mxCell>
        <mxCell id="cRQAMdIp9ZnJGTgWbgQi-43" value="province_name" style="text;strokeColor=none;fillColor=none;align=left;verticalAlign=top;spacingLeft=4;spacingRight=4;overflow=hidden;rotatable=0;points=[[0,0.5],[1,0.5]];portConstraint=eastwest;" parent="cRQAMdIp9ZnJGTgWbgQi-41" vertex="1">
          <mxGeometry y="52" width="140" height="26" as="geometry" />
        </mxCell>
        <mxCell id="cRQAMdIp9ZnJGTgWbgQi-50" value="" style="endArrow=none;html=1;exitX=1;exitY=0.5;exitDx=0;exitDy=0;entryX=0.457;entryY=1.038;entryDx=0;entryDy=0;entryPerimeter=0;" parent="1" source="cRQAMdIp9ZnJGTgWbgQi-46" target="cRQAMdIp9ZnJGTgWbgQi-31" edge="1">
          <mxGeometry width="50" height="50" relative="1" as="geometry">
            <mxPoint x="250" y="1690" as="sourcePoint" />
            <mxPoint x="300" y="1640" as="targetPoint" />
          </mxGeometry>
        </mxCell>
        <mxCell id="cRQAMdIp9ZnJGTgWbgQi-51" value="" style="endArrow=none;html=1;exitX=0;exitY=0.5;exitDx=0;exitDy=0;" parent="1" source="cRQAMdIp9ZnJGTgWbgQi-40" edge="1">
          <mxGeometry width="50" height="50" relative="1" as="geometry">
            <mxPoint x="254" y="1691" as="sourcePoint" />
            <mxPoint x="360" y="1600" as="targetPoint" />
          </mxGeometry>
        </mxCell>
        <mxCell id="cRQAMdIp9ZnJGTgWbgQi-52" value="" style="endArrow=none;html=1;exitX=1.021;exitY=-0.077;exitDx=0;exitDy=0;entryX=-0.007;entryY=0.038;entryDx=0;entryDy=0;entryPerimeter=0;exitPerimeter=0;" parent="1" source="cRQAMdIp9ZnJGTgWbgQi-48" target="cRQAMdIp9ZnJGTgWbgQi-43" edge="1">
          <mxGeometry width="50" height="50" relative="1" as="geometry">
            <mxPoint x="264" y="1701" as="sourcePoint" />
            <mxPoint x="383.98" y="1618.9879999999998" as="targetPoint" />
          </mxGeometry>
        </mxCell>
        <mxCell id="cRQAMdIp9ZnJGTgWbgQi-53" value="" style="endArrow=none;html=1;entryX=0.5;entryY=0;entryDx=0;entryDy=0;" parent="1" target="cRQAMdIp9ZnJGTgWbgQi-33" edge="1">
          <mxGeometry width="50" height="50" relative="1" as="geometry">
            <mxPoint x="250" y="1680" as="sourcePoint" />
            <mxPoint x="393.98" y="1628.9879999999998" as="targetPoint" />
          </mxGeometry>
        </mxCell>
        <mxCell id="RLBoGvnOyr4800KcQMpl-1" value="" style="endArrow=classic;html=1;" edge="1" parent="1">
          <mxGeometry width="50" height="50" relative="1" as="geometry">
            <mxPoint x="120" y="2080" as="sourcePoint" />
            <mxPoint x="480" y="2080" as="targetPoint" />
          </mxGeometry>
        </mxCell>
        <mxCell id="RLBoGvnOyr4800KcQMpl-2" value="" style="endArrow=classic;html=1;" edge="1" parent="1">
          <mxGeometry width="50" height="50" relative="1" as="geometry">
            <mxPoint x="120" y="2120" as="sourcePoint" />
            <mxPoint x="480" y="2120" as="targetPoint" />
            <Array as="points">
              <mxPoint x="300" y="2120" />
            </Array>
          </mxGeometry>
        </mxCell>
        <mxCell id="RLBoGvnOyr4800KcQMpl-3" value="" style="endArrow=classic;html=1;" edge="1" parent="1">
          <mxGeometry width="50" height="50" relative="1" as="geometry">
            <mxPoint x="120" y="2160" as="sourcePoint" />
            <mxPoint x="480" y="2160" as="targetPoint" />
          </mxGeometry>
        </mxCell>
        <mxCell id="RLBoGvnOyr4800KcQMpl-4" value="Primary" style="text;html=1;align=center;verticalAlign=middle;resizable=0;points=[];autosize=1;strokeColor=none;" vertex="1" parent="1">
          <mxGeometry x="500" y="2070" width="60" height="20" as="geometry" />
        </mxCell>
        <mxCell id="RLBoGvnOyr4800KcQMpl-5" value="Secondary1" style="text;html=1;align=center;verticalAlign=middle;resizable=0;points=[];autosize=1;strokeColor=none;" vertex="1" parent="1">
          <mxGeometry x="490" y="2110" width="80" height="20" as="geometry" />
        </mxCell>
        <mxCell id="RLBoGvnOyr4800KcQMpl-6" value="Secondary2" style="text;html=1;align=center;verticalAlign=middle;resizable=0;points=[];autosize=1;strokeColor=none;" vertex="1" parent="1">
          <mxGeometry x="490" y="2150" width="80" height="20" as="geometry" />
        </mxCell>
        <mxCell id="RLBoGvnOyr4800KcQMpl-7" value="" style="endArrow=classic;html=1;" edge="1" parent="1">
          <mxGeometry width="50" height="50" relative="1" as="geometry">
            <mxPoint x="140" y="2030" as="sourcePoint" />
            <mxPoint x="170" y="2080" as="targetPoint" />
          </mxGeometry>
        </mxCell>
        <mxCell id="RLBoGvnOyr4800KcQMpl-8" value="" style="endArrow=classic;html=1;" edge="1" parent="1">
          <mxGeometry width="50" height="50" relative="1" as="geometry">
            <mxPoint x="170" y="2080" as="sourcePoint" />
            <mxPoint x="210" y="2030" as="targetPoint" />
          </mxGeometry>
        </mxCell>
        <mxCell id="RLBoGvnOyr4800KcQMpl-9" value="" style="endArrow=classic;html=1;dashed=1;" edge="1" parent="1">
          <mxGeometry width="50" height="50" relative="1" as="geometry">
            <mxPoint x="170" y="2080" as="sourcePoint" />
            <mxPoint x="190" y="2120" as="targetPoint" />
          </mxGeometry>
        </mxCell>
        <mxCell id="RLBoGvnOyr4800KcQMpl-10" value="" style="endArrow=classic;html=1;dashed=1;" edge="1" parent="1">
          <mxGeometry width="50" height="50" relative="1" as="geometry">
            <mxPoint x="190" y="2120" as="sourcePoint" />
            <mxPoint x="260" y="2080" as="targetPoint" />
          </mxGeometry>
        </mxCell>
        <mxCell id="RLBoGvnOyr4800KcQMpl-11" value="" style="endArrow=classic;html=1;dashed=1;" edge="1" parent="1">
          <mxGeometry width="50" height="50" relative="1" as="geometry">
            <mxPoint x="170" y="2080" as="sourcePoint" />
            <mxPoint x="270" y="2160" as="targetPoint" />
          </mxGeometry>
        </mxCell>
        <mxCell id="RLBoGvnOyr4800KcQMpl-12" value="" style="endArrow=classic;html=1;dashed=1;" edge="1" parent="1">
          <mxGeometry width="50" height="50" relative="1" as="geometry">
            <mxPoint x="270" y="2160" as="sourcePoint" />
            <mxPoint x="350" y="2080" as="targetPoint" />
          </mxGeometry>
        </mxCell>
        <mxCell id="RLBoGvnOyr4800KcQMpl-15" value="x=1" style="text;html=1;align=center;verticalAlign=middle;resizable=0;points=[];autosize=1;strokeColor=none;" vertex="1" parent="1">
          <mxGeometry x="100" y="2010" width="40" height="20" as="geometry" />
        </mxCell>
        <mxCell id="RLBoGvnOyr4800KcQMpl-16" value="成功" style="text;html=1;align=center;verticalAlign=middle;resizable=0;points=[];autosize=1;strokeColor=none;" vertex="1" parent="1">
          <mxGeometry x="220" y="2010" width="40" height="20" as="geometry" />
        </mxCell>
        <mxCell id="RLBoGvnOyr4800KcQMpl-17" value="" style="endArrow=classic;html=1;" edge="1" parent="1">
          <mxGeometry width="50" height="50" relative="1" as="geometry">
            <mxPoint x="120" y="2300" as="sourcePoint" />
            <mxPoint x="480" y="2300" as="targetPoint" />
          </mxGeometry>
        </mxCell>
        <mxCell id="RLBoGvnOyr4800KcQMpl-18" value="" style="endArrow=classic;html=1;" edge="1" parent="1">
          <mxGeometry width="50" height="50" relative="1" as="geometry">
            <mxPoint x="120" y="2340" as="sourcePoint" />
            <mxPoint x="480" y="2340" as="targetPoint" />
            <Array as="points">
              <mxPoint x="300" y="2340" />
            </Array>
          </mxGeometry>
        </mxCell>
        <mxCell id="RLBoGvnOyr4800KcQMpl-19" value="" style="endArrow=classic;html=1;" edge="1" parent="1">
          <mxGeometry width="50" height="50" relative="1" as="geometry">
            <mxPoint x="120" y="2380" as="sourcePoint" />
            <mxPoint x="480" y="2380" as="targetPoint" />
          </mxGeometry>
        </mxCell>
        <mxCell id="RLBoGvnOyr4800KcQMpl-20" value="Primary" style="text;html=1;align=center;verticalAlign=middle;resizable=0;points=[];autosize=1;strokeColor=none;" vertex="1" parent="1">
          <mxGeometry x="500" y="2290" width="60" height="20" as="geometry" />
        </mxCell>
        <mxCell id="RLBoGvnOyr4800KcQMpl-21" value="Secondary1" style="text;html=1;align=center;verticalAlign=middle;resizable=0;points=[];autosize=1;strokeColor=none;" vertex="1" parent="1">
          <mxGeometry x="490" y="2330" width="80" height="20" as="geometry" />
        </mxCell>
        <mxCell id="RLBoGvnOyr4800KcQMpl-22" value="Secondary2" style="text;html=1;align=center;verticalAlign=middle;resizable=0;points=[];autosize=1;strokeColor=none;" vertex="1" parent="1">
          <mxGeometry x="490" y="2370" width="80" height="20" as="geometry" />
        </mxCell>
        <mxCell id="RLBoGvnOyr4800KcQMpl-23" value="" style="endArrow=classic;html=1;" edge="1" parent="1">
          <mxGeometry width="50" height="50" relative="1" as="geometry">
            <mxPoint x="140" y="2250" as="sourcePoint" />
            <mxPoint x="170" y="2300" as="targetPoint" />
          </mxGeometry>
        </mxCell>
        <mxCell id="RLBoGvnOyr4800KcQMpl-24" value="" style="endArrow=classic;html=1;" edge="1" parent="1">
          <mxGeometry width="50" height="50" relative="1" as="geometry">
            <mxPoint x="260" y="2300" as="sourcePoint" />
            <mxPoint x="300" y="2250" as="targetPoint" />
          </mxGeometry>
        </mxCell>
        <mxCell id="RLBoGvnOyr4800KcQMpl-25" value="" style="endArrow=classic;html=1;" edge="1" parent="1">
          <mxGeometry width="50" height="50" relative="1" as="geometry">
            <mxPoint x="170" y="2300" as="sourcePoint" />
            <mxPoint x="190" y="2340" as="targetPoint" />
          </mxGeometry>
        </mxCell>
        <mxCell id="RLBoGvnOyr4800KcQMpl-26" value="" style="endArrow=classic;html=1;" edge="1" parent="1">
          <mxGeometry width="50" height="50" relative="1" as="geometry">
            <mxPoint x="190" y="2340" as="sourcePoint" />
            <mxPoint x="260" y="2300" as="targetPoint" />
          </mxGeometry>
        </mxCell>
        <mxCell id="RLBoGvnOyr4800KcQMpl-27" value="" style="endArrow=classic;html=1;dashed=1;" edge="1" parent="1">
          <mxGeometry width="50" height="50" relative="1" as="geometry">
            <mxPoint x="170" y="2300" as="sourcePoint" />
            <mxPoint x="270" y="2380" as="targetPoint" />
          </mxGeometry>
        </mxCell>
        <mxCell id="RLBoGvnOyr4800KcQMpl-28" value="" style="endArrow=classic;html=1;dashed=1;" edge="1" parent="1">
          <mxGeometry width="50" height="50" relative="1" as="geometry">
            <mxPoint x="270" y="2380" as="sourcePoint" />
            <mxPoint x="350" y="2300" as="targetPoint" />
          </mxGeometry>
        </mxCell>
        <mxCell id="RLBoGvnOyr4800KcQMpl-29" value="x=1" style="text;html=1;align=center;verticalAlign=middle;resizable=0;points=[];autosize=1;strokeColor=none;" vertex="1" parent="1">
          <mxGeometry x="100" y="2230" width="40" height="20" as="geometry" />
        </mxCell>
        <mxCell id="RLBoGvnOyr4800KcQMpl-30" value="成功" style="text;html=1;align=center;verticalAlign=middle;resizable=0;points=[];autosize=1;strokeColor=none;" vertex="1" parent="1">
          <mxGeometry x="310" y="2230" width="40" height="20" as="geometry" />
        </mxCell>
        <mxCell id="RLBoGvnOyr4800KcQMpl-31" value="" style="endArrow=classic;html=1;" edge="1" parent="1">
          <mxGeometry width="50" height="50" relative="1" as="geometry">
            <mxPoint x="129" y="2510" as="sourcePoint" />
            <mxPoint x="489" y="2510" as="targetPoint" />
          </mxGeometry>
        </mxCell>
        <mxCell id="RLBoGvnOyr4800KcQMpl-32" value="" style="endArrow=classic;html=1;" edge="1" parent="1">
          <mxGeometry width="50" height="50" relative="1" as="geometry">
            <mxPoint x="129" y="2550" as="sourcePoint" />
            <mxPoint x="489" y="2550" as="targetPoint" />
            <Array as="points">
              <mxPoint x="309" y="2550" />
            </Array>
          </mxGeometry>
        </mxCell>
        <mxCell id="RLBoGvnOyr4800KcQMpl-33" value="" style="endArrow=classic;html=1;" edge="1" parent="1">
          <mxGeometry width="50" height="50" relative="1" as="geometry">
            <mxPoint x="129" y="2590" as="sourcePoint" />
            <mxPoint x="489" y="2590" as="targetPoint" />
          </mxGeometry>
        </mxCell>
        <mxCell id="RLBoGvnOyr4800KcQMpl-34" value="Primary" style="text;html=1;align=center;verticalAlign=middle;resizable=0;points=[];autosize=1;strokeColor=none;" vertex="1" parent="1">
          <mxGeometry x="509" y="2500" width="60" height="20" as="geometry" />
        </mxCell>
        <mxCell id="RLBoGvnOyr4800KcQMpl-35" value="Secondary1" style="text;html=1;align=center;verticalAlign=middle;resizable=0;points=[];autosize=1;strokeColor=none;" vertex="1" parent="1">
          <mxGeometry x="499" y="2540" width="80" height="20" as="geometry" />
        </mxCell>
        <mxCell id="RLBoGvnOyr4800KcQMpl-36" value="Secondary2" style="text;html=1;align=center;verticalAlign=middle;resizable=0;points=[];autosize=1;strokeColor=none;" vertex="1" parent="1">
          <mxGeometry x="499" y="2580" width="80" height="20" as="geometry" />
        </mxCell>
        <mxCell id="RLBoGvnOyr4800KcQMpl-37" value="" style="endArrow=classic;html=1;" edge="1" parent="1">
          <mxGeometry width="50" height="50" relative="1" as="geometry">
            <mxPoint x="149" y="2460" as="sourcePoint" />
            <mxPoint x="179" y="2510" as="targetPoint" />
          </mxGeometry>
        </mxCell>
        <mxCell id="RLBoGvnOyr4800KcQMpl-38" value="" style="endArrow=classic;html=1;" edge="1" parent="1">
          <mxGeometry width="50" height="50" relative="1" as="geometry">
            <mxPoint x="360" y="2510" as="sourcePoint" />
            <mxPoint x="400" y="2460" as="targetPoint" />
          </mxGeometry>
        </mxCell>
        <mxCell id="RLBoGvnOyr4800KcQMpl-39" value="" style="endArrow=classic;html=1;" edge="1" parent="1">
          <mxGeometry width="50" height="50" relative="1" as="geometry">
            <mxPoint x="179" y="2510" as="sourcePoint" />
            <mxPoint x="199" y="2550" as="targetPoint" />
          </mxGeometry>
        </mxCell>
        <mxCell id="RLBoGvnOyr4800KcQMpl-40" value="" style="endArrow=classic;html=1;" edge="1" parent="1">
          <mxGeometry width="50" height="50" relative="1" as="geometry">
            <mxPoint x="199" y="2550" as="sourcePoint" />
            <mxPoint x="269" y="2510" as="targetPoint" />
          </mxGeometry>
        </mxCell>
        <mxCell id="RLBoGvnOyr4800KcQMpl-41" value="" style="endArrow=classic;html=1;" edge="1" parent="1">
          <mxGeometry width="50" height="50" relative="1" as="geometry">
            <mxPoint x="179" y="2510" as="sourcePoint" />
            <mxPoint x="279" y="2590" as="targetPoint" />
          </mxGeometry>
        </mxCell>
        <mxCell id="RLBoGvnOyr4800KcQMpl-42" value="" style="endArrow=classic;html=1;" edge="1" parent="1">
          <mxGeometry width="50" height="50" relative="1" as="geometry">
            <mxPoint x="279" y="2590" as="sourcePoint" />
            <mxPoint x="359" y="2510" as="targetPoint" />
          </mxGeometry>
        </mxCell>
        <mxCell id="RLBoGvnOyr4800KcQMpl-43" value="x=1" style="text;html=1;align=center;verticalAlign=middle;resizable=0;points=[];autosize=1;strokeColor=none;" vertex="1" parent="1">
          <mxGeometry x="109" y="2440" width="40" height="20" as="geometry" />
        </mxCell>
        <mxCell id="RLBoGvnOyr4800KcQMpl-44" value="成功" style="text;html=1;align=center;verticalAlign=middle;resizable=0;points=[];autosize=1;strokeColor=none;" vertex="1" parent="1">
          <mxGeometry x="410" y="2440" width="40" height="20" as="geometry" />
        </mxCell>
        <mxCell id="RLBoGvnOyr4800KcQMpl-46" value="" style="endArrow=classic;html=1;" edge="1" parent="1">
          <mxGeometry width="50" height="50" relative="1" as="geometry">
            <mxPoint x="124" y="2740" as="sourcePoint" />
            <mxPoint x="484" y="2740" as="targetPoint" />
          </mxGeometry>
        </mxCell>
        <mxCell id="RLBoGvnOyr4800KcQMpl-47" value="" style="endArrow=classic;html=1;" edge="1" parent="1">
          <mxGeometry width="50" height="50" relative="1" as="geometry">
            <mxPoint x="124" y="2780" as="sourcePoint" />
            <mxPoint x="484" y="2780" as="targetPoint" />
            <Array as="points">
              <mxPoint x="304" y="2780" />
            </Array>
          </mxGeometry>
        </mxCell>
        <mxCell id="RLBoGvnOyr4800KcQMpl-48" value="" style="endArrow=classic;html=1;" edge="1" parent="1">
          <mxGeometry width="50" height="50" relative="1" as="geometry">
            <mxPoint x="124" y="2820" as="sourcePoint" />
            <mxPoint x="484" y="2820" as="targetPoint" />
          </mxGeometry>
        </mxCell>
        <mxCell id="RLBoGvnOyr4800KcQMpl-49" value="Primary" style="text;html=1;align=center;verticalAlign=middle;resizable=0;points=[];autosize=1;strokeColor=none;" vertex="1" parent="1">
          <mxGeometry x="504" y="2730" width="60" height="20" as="geometry" />
        </mxCell>
        <mxCell id="RLBoGvnOyr4800KcQMpl-50" value="Secondary1" style="text;html=1;align=center;verticalAlign=middle;resizable=0;points=[];autosize=1;strokeColor=none;" vertex="1" parent="1">
          <mxGeometry x="494" y="2770" width="80" height="20" as="geometry" />
        </mxCell>
        <mxCell id="RLBoGvnOyr4800KcQMpl-51" value="Secondary2" style="text;html=1;align=center;verticalAlign=middle;resizable=0;points=[];autosize=1;strokeColor=none;" vertex="1" parent="1">
          <mxGeometry x="494" y="2810" width="80" height="20" as="geometry" />
        </mxCell>
        <mxCell id="RLBoGvnOyr4800KcQMpl-52" value="" style="endArrow=classic;html=1;" edge="1" parent="1">
          <mxGeometry width="50" height="50" relative="1" as="geometry">
            <mxPoint x="144" y="2690" as="sourcePoint" />
            <mxPoint x="174" y="2740" as="targetPoint" />
          </mxGeometry>
        </mxCell>
        <mxCell id="RLBoGvnOyr4800KcQMpl-53" value="" style="endArrow=classic;html=1;" edge="1" parent="1">
          <mxGeometry width="50" height="50" relative="1" as="geometry">
            <mxPoint x="224" y="2740" as="sourcePoint" />
            <mxPoint x="264" y="2690" as="targetPoint" />
          </mxGeometry>
        </mxCell>
        <mxCell id="RLBoGvnOyr4800KcQMpl-54" value="" style="endArrow=classic;html=1;dashed=1;" edge="1" parent="1">
          <mxGeometry width="50" height="50" relative="1" as="geometry">
            <mxPoint x="174" y="2740" as="sourcePoint" />
            <mxPoint x="194" y="2780" as="targetPoint" />
          </mxGeometry>
        </mxCell>
        <mxCell id="RLBoGvnOyr4800KcQMpl-55" value="" style="endArrow=classic;html=1;dashed=1;" edge="1" parent="1">
          <mxGeometry width="50" height="50" relative="1" as="geometry">
            <mxPoint x="194" y="2780" as="sourcePoint" />
            <mxPoint x="264" y="2740" as="targetPoint" />
          </mxGeometry>
        </mxCell>
        <mxCell id="RLBoGvnOyr4800KcQMpl-56" value="" style="endArrow=classic;html=1;dashed=1;" edge="1" parent="1">
          <mxGeometry width="50" height="50" relative="1" as="geometry">
            <mxPoint x="174" y="2740" as="sourcePoint" />
            <mxPoint x="274" y="2820" as="targetPoint" />
          </mxGeometry>
        </mxCell>
        <mxCell id="RLBoGvnOyr4800KcQMpl-57" value="" style="endArrow=classic;html=1;dashed=1;" edge="1" parent="1">
          <mxGeometry width="50" height="50" relative="1" as="geometry">
            <mxPoint x="274" y="2820" as="sourcePoint" />
            <mxPoint x="354" y="2740" as="targetPoint" />
          </mxGeometry>
        </mxCell>
        <mxCell id="RLBoGvnOyr4800KcQMpl-58" value="x=1" style="text;html=1;align=center;verticalAlign=middle;resizable=0;points=[];autosize=1;strokeColor=none;" vertex="1" parent="1">
          <mxGeometry x="104" y="2670" width="40" height="20" as="geometry" />
        </mxCell>
        <mxCell id="RLBoGvnOyr4800KcQMpl-59" value="成功" style="text;html=1;align=center;verticalAlign=middle;resizable=0;points=[];autosize=1;strokeColor=none;" vertex="1" parent="1">
          <mxGeometry x="224" y="2670" width="40" height="20" as="geometry" />
        </mxCell>
        <mxCell id="RLBoGvnOyr4800KcQMpl-60" value="" style="endArrow=classic;html=1;" edge="1" parent="1">
          <mxGeometry width="50" height="50" relative="1" as="geometry">
            <mxPoint x="175" y="2740" as="sourcePoint" />
            <mxPoint x="205" y="2860" as="targetPoint" />
          </mxGeometry>
        </mxCell>
        <mxCell id="RLBoGvnOyr4800KcQMpl-61" value="" style="endArrow=classic;html=1;" edge="1" parent="1">
          <mxGeometry width="50" height="50" relative="1" as="geometry">
            <mxPoint x="220" y="2860" as="sourcePoint" />
            <mxPoint x="226" y="2740" as="targetPoint" />
          </mxGeometry>
        </mxCell>
        <mxCell id="RLBoGvnOyr4800KcQMpl-62" value="" style="whiteSpace=wrap;html=1;aspect=fixed;" vertex="1" parent="1">
          <mxGeometry x="206" y="2860" width="20" height="20" as="geometry" />
        </mxCell>
      </root>
    </mxGraphModel>
  </diagram>
</mxfile>
